<?xml version="1.0" standalone="no"?>
<!DOCTYPE svg PUBLIC "-//W3C//DTD SVG 20010904//EN"
 "http://www.w3.org/TR/2001/REC-SVG-20010904/DTD/svg10.dtd">
<svg version="1.0" xmlns="http://www.w3.org/2000/svg"
 width="458.000000pt" height="458.000000pt" viewBox="0 0 458.000000 458.000000"
 preserveAspectRatio="xMidYMid meet">

<g transform="translate(0.000000,458.000000) scale(0.100000,-0.100000)"
fill="#000000" stroke="none">
<path d="M2045 4569 c-22 -5 -102 -20 -177 -34 -392 -73 -771 -254 -1073 -515
-70 -60 -225 -222 -292 -305 -77 -96 -202 -295 -268 -424 -131 -263 -213 -583
-231 -913 -4 -83 -4 -88 15 -88 17 0 19 5 14 35 -7 43 4 77 17 55 7 -11 11 -8
19 13 6 16 11 33 11 38 0 5 4 9 9 9 11 0 21 -35 21 -75 0 -23 3 -27 10 -15 16
25 12 90 -5 90 -28 0 -28 30 -1 55 26 24 34 45 17 45 -12 0 -61 -47 -61 -59 0
-5 -5 -13 -11 -17 -15 -9 -3 58 18 103 8 17 12 41 8 52 -4 14 2 32 17 53 34
48 48 78 48 102 0 12 9 40 20 61 11 22 18 46 15 54 -3 8 2 25 11 38 8 14 13
27 10 30 -3 3 1 18 9 34 8 15 15 39 15 54 0 14 5 25 11 25 7 0 9 10 7 25 -6
30 7 42 26 23 14 -15 15 -41 2 -71 -5 -10 -6 -20 -3 -23 3 -4 -6 -17 -21 -30
-19 -16 -22 -23 -11 -24 8 0 20 5 27 12 6 6 14 9 18 6 3 -4 -4 -16 -15 -27
-12 -12 -21 -33 -21 -47 0 -24 3 -26 30 -20 22 4 32 1 36 -9 4 -8 10 -15 15
-15 6 0 5 8 -1 19 -16 32 -11 38 10 11 16 -21 21 -23 32 -12 11 11 10 15 -2
22 -8 5 -21 13 -28 18 -8 5 -16 28 -19 51 -5 33 -3 41 11 41 21 0 20 10 -1 25
-15 11 -15 16 5 59 12 25 22 52 22 60 0 7 7 19 15 26 8 7 15 17 15 22 0 15
-31 -13 -52 -47 -13 -21 -18 -25 -18 -12 0 9 12 36 26 58 18 29 22 44 15 53
-6 7 -8 16 -4 19 3 4 1 7 -6 7 -16 0 -5 60 13 75 7 6 21 28 31 50 11 22 22 42
26 45 3 3 14 19 23 37 17 33 40 56 30 29 -3 -9 -2 -16 4 -16 6 0 13 6 15 13 3
7 6 5 6 -5 1 -17 2 -17 19 0 46 42 64 53 80 46 10 -4 21 -6 26 -5 5 1 3 -5 -4
-14 -9 -11 -15 -13 -20 -4 -10 16 -22 -5 -14 -25 7 -19 16 -20 33 -3 11 10 12
7 7 -17 -5 -19 -3 -32 5 -37 10 -6 10 -11 0 -23 -8 -9 -11 -26 -7 -40 3 -14 1
-28 -5 -31 -6 -4 -8 -14 -5 -22 5 -11 2 -13 -10 -9 -11 4 -18 -1 -21 -14 -3
-11 -9 -18 -13 -15 -11 7 -23 -13 -26 -43 -3 -23 -2 -23 19 -7 12 8 30 18 40
22 9 3 20 16 23 29 7 27 24 32 24 7 0 -14 4 -12 25 7 28 26 32 49 13 69 -11
11 -10 13 4 8 10 -4 18 -2 18 3 0 5 12 17 26 26 22 15 27 15 34 3 6 -8 4 -16
-3 -21 -8 -5 -4 -15 14 -34 l26 -26 41 21 c22 11 50 35 62 52 16 21 28 29 41
26 11 -3 19 -1 19 3 0 5 13 23 29 40 16 18 32 44 35 59 8 37 22 55 36 46 8 -5
7 -12 -4 -24 -17 -19 -12 -31 13 -31 14 0 14 2 1 10 -11 7 -3 9 27 7 23 -1 41
-6 40 -12 -1 -5 5 -10 13 -10 8 0 18 15 23 38 6 24 15 37 25 37 13 0 17 -11
19 -49 2 -46 1 -49 -20 -43 -21 5 -21 5 -4 -22 10 -14 15 -31 12 -36 -3 -6 1
-10 10 -10 24 0 11 -47 -21 -77 -30 -27 -30 -29 0 -45 20 -11 22 -16 13 -28
-22 -28 -125 -72 -168 -72 -32 1 -42 -3 -48 -21 -5 -12 -5 -30 1 -40 5 -9 6
-22 3 -27 -7 -11 18 -14 28 -4 3 4 27 8 51 10 41 2 50 -1 82 -33 32 -31 41
-34 74 -29 35 6 37 5 32 -19 -3 -18 0 -25 12 -25 14 0 20 -10 18 -31 -1 -3 9
-5 20 -5 15 1 23 -7 29 -26 5 -20 4 -25 -7 -21 -10 4 -11 -2 -4 -25 6 -24 5
-32 -7 -36 -8 -3 -14 -16 -13 -28 4 -39 1 -54 -8 -41 -4 6 -18 14 -32 18 -21
5 -28 0 -43 -25 -10 -17 -23 -28 -28 -25 -5 4 -25 -6 -44 -21 -38 -28 -41 -43
-6 -24 29 15 27 -4 -4 -38 -14 -15 -23 -34 -20 -43 9 -28 -21 -40 -111 -44
-88 -4 -115 -11 -76 -22 37 -9 14 -23 -33 -18 -30 3 -47 0 -55 -10 -10 -12 -9
-15 4 -15 14 0 15 -4 6 -20 -15 -27 -34 -25 -48 5 -6 14 -18 25 -27 25 -18 0
-20 -17 -3 -22 15 -5 -71 -98 -90 -98 -7 0 -17 -11 -22 -24 -7 -18 -14 -23
-29 -19 -12 3 -21 10 -21 16 0 16 -8 5 -25 -36 -14 -34 -14 -36 2 -30 16 6 16
5 4 -10 -9 -12 -10 -17 -2 -17 6 0 14 6 17 14 7 19 40 26 54 12 8 -8 13 -7 19
3 6 9 10 4 13 -18 5 -37 -15 -71 -43 -71 -21 0 -25 -20 -7 -38 9 -9 7 -13 -6
-18 -11 -4 -22 0 -31 12 -13 19 -14 18 -28 -1 -18 -23 -13 -37 9 -28 11 4 14
0 12 -18 -2 -13 -7 -30 -12 -38 -6 -9 -5 -12 5 -9 8 2 18 14 24 26 5 12 17 22
25 21 11 0 11 -2 2 -6 -10 -4 -9 -10 3 -30 12 -17 14 -28 6 -36 -5 -5 -7 -22
-4 -37 6 -32 -11 -70 -31 -70 -15 0 -29 -27 -21 -40 9 -15 -49 -6 -65 10 -8 9
-11 10 -7 3 5 -7 2 -21 -7 -35 -18 -25 -21 -68 -6 -68 6 0 10 11 10 25 0 35
17 31 25 -6 5 -22 3 -34 -6 -40 -9 -6 -3 -8 18 -5 23 2 33 -1 36 -15 4 -14 -1
-17 -24 -14 -31 4 -39 -11 -17 -33 9 -9 9 -15 3 -20 -6 -4 -16 -19 -23 -35 -6
-15 -15 -26 -20 -25 -14 5 -65 -49 -53 -56 6 -4 11 -1 11 6 0 21 20 -14 20
-36 0 -17 -2 -17 -24 -3 -22 15 -23 14 -22 -1 0 -9 -7 -18 -16 -20 -12 -2 -18
3 -18 15 0 11 -7 28 -15 39 -15 18 -16 17 -10 -13 4 -18 3 -38 -1 -45 -12 -19
-5 -62 17 -104 10 -21 19 -33 19 -26 0 6 7 9 15 6 11 -5 15 1 15 21 0 21 4 26
16 21 9 -3 18 -6 20 -6 3 0 2 -4 -1 -10 -3 -5 0 -7 8 -4 20 7 33 -16 16 -27
-12 -7 -11 -9 1 -9 12 -1 11 -4 -3 -15 -18 -13 -17 -14 5 -17 17 -2 24 -10 26
-30 2 -16 -1 -28 -6 -28 -5 0 -12 -11 -14 -25 -5 -22 -3 -25 15 -19 17 5 15 1
-8 -20 -21 -18 -24 -24 -11 -19 15 5 18 3 13 -10 -3 -9 -2 -17 4 -17 6 0 7 -5
3 -11 -3 -6 0 -15 7 -20 7 -4 10 -11 6 -15 -9 -9 -37 15 -37 32 0 8 -4 14 -10
14 -5 0 -10 14 -10 30 0 17 -4 30 -10 30 -5 0 -7 -8 -3 -17 3 -11 -9 -4 -31
17 -29 28 -37 41 -33 63 2 15 -2 32 -10 38 -7 6 -13 27 -13 46 0 32 -22 79
-45 95 -6 5 -5 8 3 8 16 0 15 54 -2 110 -14 43 -15 43 -15 13 -1 -17 4 -44 9
-59 14 -36 7 -40 -35 -20 -40 19 -44 31 -15 39 13 3 18 10 14 21 -5 12 -10 13
-26 5 -17 -9 -18 -8 -10 8 11 19 5 70 -8 78 -4 3 -7 -11 -6 -30 1 -19 0 -35
-1 -35 -7 0 -31 58 -26 64 3 3 -1 14 -9 23 -8 10 -21 44 -28 76 -13 55 -30 77
-30 38 0 -23 -16 -36 -25 -21 -4 6 -11 8 -16 5 -9 -6 -18 10 -23 37 -2 19 -16
38 -26 38 -5 0 -7 -7 -4 -15 4 -8 2 -15 -3 -15 -8 0 -42 92 -57 155 -3 11 -3
-14 0 -55 15 -225 129 -596 252 -820 324 -593 911 -1028 1551 -1151 58 -11
140 -26 182 -34 88 -17 474 -21 542 -5 23 5 105 21 182 35 426 80 824 289
1149 605 359 348 571 753 665 1266 28 155 31 190 31 374 0 184 -3 219 -31 374
-47 260 -108 444 -215 658 -244 486 -676 883 -1189 1091 -152 62 -290 100
-492 136 -156 28 -190 31 -370 30 -109 -1 -216 -5 -238 -10z m-756 -306 c-5
-28 3 -33 19 -14 12 15 21 18 32 11 10 -6 11 -10 3 -10 -7 0 -13 -5 -13 -11 0
-6 7 -8 16 -5 10 4 14 2 11 -6 -2 -7 -9 -12 -15 -11 -6 2 -9 -3 -7 -10 9 -25
-22 -48 -70 -52 -25 -2 -63 -13 -82 -25 -32 -18 -66 -25 -168 -33 -11 0 -28
-11 -38 -24 -11 -14 -24 -20 -34 -16 -13 5 -8 14 27 45 23 21 45 36 48 34 6
-7 81 46 109 77 13 14 35 27 50 30 27 5 27 5 -7 -24 -19 -16 -38 -29 -42 -29
-5 0 -8 -5 -8 -12 0 -7 6 -6 18 4 9 8 28 20 42 26 14 7 43 24 65 37 45 28 45
28 44 18z m-140 -520 c-11 -21 -27 -45 -35 -53 -12 -12 -14 -12 -14 4 0 17 -2
18 -17 4 -34 -29 -40 -28 -40 5 -1 18 1 26 4 20 7 -18 23 -16 42 5 19 21 62
52 73 52 4 0 -2 -17 -13 -37z m-119 -118 c0 -8 -7 -15 -15 -15 -16 0 -20 12
-8 23 11 12 23 8 23 -8z m-480 -66 c0 -5 -7 -9 -15 -9 -9 0 -12 6 -9 15 6 15
24 11 24 -6z m685 -227 c-3 -3 -11 0 -18 7 -9 10 -8 11 6 5 10 -3 15 -9 12
-12z m215 -232 c0 -38 -4 -50 -15 -50 -13 0 -15 8 -10 38 13 79 25 85 25 12z
m140 -230 c-24 -15 -36 -11 -14 4 10 8 21 12 24 10 2 -3 -2 -9 -10 -14z m-80
-69 c0 -12 -20 -25 -27 -18 -7 7 6 27 18 27 5 0 9 -4 9 -9z m-90 -79 c0 -5 -9
-17 -20 -27 -11 -10 -20 -13 -20 -7 0 7 5 12 10 12 6 0 10 7 10 15 0 8 5 15
10 15 6 0 10 -4 10 -8z m-88 -72 c-2 -17 -8 -33 -13 -36 -10 -6 -12 26 -3 50
10 27 21 18 16 -14z m65 -36 c27 -42 21 -66 -13 -58 -26 7 -31 -1 -11 -20 33
-34 95 -17 82 22 -4 15 0 22 15 27 11 3 20 13 20 20 0 26 19 26 37 -1 13 -20
14 -29 5 -32 -17 -5 -15 -22 2 -22 8 0 16 7 20 15 3 8 12 15 19 15 8 0 19 12
26 27 16 36 28 16 24 -40 -2 -32 0 -38 8 -24 5 9 15 17 20 17 6 0 8 -8 5 -17
-7 -22 8 -48 22 -39 17 10 37 -34 21 -48 -9 -8 -11 -7 -6 6 4 12 2 15 -9 11
-8 -3 -21 1 -30 8 -13 11 -14 9 -9 -14 5 -17 3 -27 -4 -27 -6 0 -11 4 -11 9 0
14 -44 21 -52 8 -5 -8 -8 -7 -8 6 0 19 -15 23 -25 7 -8 -13 19 -40 39 -40 9 0
16 -7 16 -16 0 -11 6 -15 20 -11 13 3 24 -1 30 -13 6 -12 17 -16 30 -13 14 4
20 0 20 -11 0 -9 -8 -17 -17 -18 -33 -2 -38 -4 -50 -11 -8 -5 -13 -4 -13 2 0
6 -4 11 -10 11 -5 0 -10 -8 -10 -17 0 -29 -27 -50 -60 -45 -28 4 -44 22 -19
22 5 0 7 5 4 10 -3 6 -18 8 -33 5 -15 -3 -22 -3 -16 0 6 3 32 26 58 50 l46 45
-30 0 c-22 0 -28 4 -24 15 8 19 -3 19 -23 0 -8 -9 -13 -24 -10 -35 4 -16 2
-17 -14 -7 -10 6 -19 17 -19 24 0 7 -7 13 -16 13 -11 0 -13 6 -9 19 5 16 2 18
-17 13 -20 -5 -21 -3 -11 10 19 23 4 29 -25 10 -15 -9 -23 -11 -19 -4 11 16 2
15 -33 -3 -38 -19 -39 -4 -2 25 24 19 25 20 5 15 -13 -4 -28 -3 -35 2 -7 4
-19 8 -25 8 -7 0 -13 3 -13 8 0 4 0 11 0 15 0 5 18 16 41 26 22 10 42 24 45
32 2 8 6 21 9 29 7 23 18 18 42 -21z m-347 -18 c0 -3 -4 -8 -10 -11 -5 -3 -10
-1 -10 4 0 6 5 11 10 11 6 0 10 -2 10 -4z m97 -56 c-10 -14 -13 -36 -10 -63 7
-64 11 -71 27 -58 10 8 16 9 21 1 3 -5 23 -10 43 -10 52 0 68 -13 63 -52 -1
-18 -6 -35 -10 -38 -4 -3 -13 -24 -19 -47 -9 -31 -17 -41 -28 -36 -11 4 -12 8
-3 19 15 18 6 27 -29 30 -46 4 -127 41 -130 59 -2 10 8 28 22 42 14 13 26 28
26 33 0 19 -13 40 -25 40 -16 0 -29 35 -20 50 3 5 12 10 19 10 7 0 23 11 36
25 27 29 39 26 17 -5z m563 13 c0 -14 -19 -38 -25 -32 -8 8 5 39 16 39 5 0 9
-3 9 -7z m-920 -63 c0 -5 -8 -10 -17 -10 -15 0 -16 2 -3 10 19 12 20 12 20 0z
m54 -15 c-4 -8 -11 -15 -16 -15 -6 0 -5 6 2 15 7 8 14 15 16 15 2 0 1 -7 -2
-15z m391 -15 c3 -5 1 -10 -4 -10 -6 0 -11 5 -11 10 0 6 2 10 4 10 3 0 8 -4
11 -10z m-485 -14 c0 -3 -4 -8 -10 -11 -5 -3 -10 -1 -10 4 0 6 5 11 10 11 6 0
10 -2 10 -4z m927 -32 c-3 -3 -12 -4 -19 -1 -8 3 -5 6 6 6 11 1 17 -2 13 -5z
m-677 -24 c8 -5 11 -12 8 -16 -10 -9 -38 3 -38 16 0 12 10 13 30 0z m-220 -10
c0 -5 -5 -10 -11 -10 -5 0 -7 5 -4 10 3 6 8 10 11 10 2 0 4 -4 4 -10z m691
-33 c-8 -8 -11 -7 -11 4 0 9 3 19 7 23 4 4 9 2 11 -4 3 -7 -1 -17 -7 -23z
m-554 -19 c-3 -8 -6 -5 -6 6 -1 11 2 17 5 13 3 -3 4 -12 1 -19z m166 -28 c6 0
25 -7 41 -15 16 -9 31 -13 34 -11 8 8 43 -14 37 -24 -10 -17 8 -40 31 -40 37
0 29 -20 -8 -21 -18 0 -41 -2 -50 -4 -10 -2 -18 3 -18 11 0 8 5 14 12 14 6 0
8 3 4 7 -4 5 -13 0 -21 -10 -10 -14 -18 -15 -38 -8 -36 14 -45 33 -13 27 14
-3 26 -3 26 0 0 2 -20 25 -45 50 -25 24 -45 49 -45 54 0 6 9 1 20 -10 11 -11
26 -20 33 -20z m677 30 c0 -5 -5 -10 -11 -10 -5 0 -7 5 -4 10 3 6 8 10 11 10
2 0 4 -4 4 -10z m-750 -10 c0 -5 -10 -10 -22 -10 -19 0 -20 2 -8 10 19 13 30
13 30 0z m680 6 c0 -3 -7 -11 -15 -20 -9 -9 -11 -17 -5 -21 5 -3 10 -1 10 4 0
18 23 12 53 -14 31 -28 34 -37 10 -34 -10 2 -28 -2 -39 -9 -18 -9 -24 -9 -35
5 -12 15 -12 16 6 10 12 -5 6 3 -13 19 l-33 27 28 18 c30 20 33 21 33 15z
m-875 -16 c3 -6 -1 -7 -9 -4 -18 7 -21 14 -7 14 6 0 13 -4 16 -10z m151 -19
c35 6 47 -15 16 -26 -26 -8 -72 17 -58 32 7 6 15 7 22 2 7 -6 16 -9 20 -8z
m-72 -2 c-6 -11 -41 -12 -47 -1 -3 4 8 7 24 8 15 1 26 -3 23 -7z m172 -20 c9
-15 -23 -10 -35 5 -10 12 -8 13 9 9 11 -3 23 -9 26 -14z m435 -22 c-12 -12
-31 0 -31 19 0 12 3 12 20 2 11 -7 16 -16 11 -21z m-626 -7 c3 -5 -1 -10 -9
-10 -9 0 -16 5 -16 10 0 6 4 10 9 10 6 0 13 -4 16 -10z m765 -6 c0 -8 -4 -12
-10 -9 -5 3 -10 10 -10 16 0 5 5 9 10 9 6 0 10 -7 10 -16z m-80 -9 c0 -8 -2
-15 -4 -15 -2 0 -6 7 -10 15 -3 8 -1 15 4 15 6 0 10 -7 10 -15z m-791 -26
c-19 -11 -24 -3 -8 14 8 9 16 11 18 5 2 -6 -3 -14 -10 -19z m891 6 c-11 -13
-10 -15 6 -12 11 1 25 6 32 10 12 8 17 -8 13 -47 -1 -19 -1 -19 19 -1 25 22
27 6 2 -22 -17 -21 -18 -21 -41 -2 -13 10 -27 16 -32 13 -5 -3 -27 6 -50 19
-26 16 -37 27 -29 32 6 4 17 2 23 -4 17 -17 34 -13 40 9 3 11 11 20 17 20 10
0 10 -3 0 -15z m-955 -34 c3 -5 1 -12 -5 -16 -5 -3 -10 1 -10 9 0 18 6 21 15
7z m450 -61 c8 -13 -5 -13 -25 0 -13 8 -13 10 2 10 9 0 20 -4 23 -10z m722
-22 c-3 -8 -6 -5 -6 6 -1 11 2 17 5 13 3 -3 4 -12 1 -19z m-1140 6 c-3 -3 -12
-4 -19 -1 -8 3 -5 6 6 6 11 1 17 -2 13 -5z m433 -14 c-8 -5 -18 -6 -24 -3 -5
4 -1 10 10 13 24 9 34 2 14 -10z m480 16 c0 -11 -19 -15 -25 -6 -3 5 1 10 9
10 9 0 16 -2 16 -4z m-459 -37 c-13 -11 -26 -17 -29 -14 -7 6 29 34 43 34 6 0
-1 -9 -14 -20z m699 -30 c0 -6 -4 -7 -10 -4 -5 3 -10 11 -10 16 0 6 5 7 10 4
6 -3 10 -11 10 -16z m-220 -14 c8 -6 24 -15 35 -21 17 -9 23 -39 9 -53 -6 -7
-34 21 -34 35 0 7 -9 18 -21 24 -20 11 -20 11 -3 -17 l18 -28 -27 24 c-15 14
-27 30 -27 36 0 14 29 13 50 0z m150 -35 c0 -5 -2 -10 -4 -10 -3 0 -8 5 -11
10 -3 6 -1 10 4 10 6 0 11 -4 11 -10z m86 -13 c1 -9 -4 -17 -11 -17 -17 0 -28
17 -20 31 9 14 28 6 31 -14z m-123 -17 c9 -11 12 -20 7 -20 -6 0 -10 -4 -10
-10 0 -5 12 -10 26 -10 21 0 24 -3 15 -14 -6 -8 -22 -16 -34 -18 -20 -4 -23 0
-26 31 -1 19 -7 41 -13 48 -8 10 -7 13 4 13 7 0 21 -9 31 -20z m103 -14 c20
-21 18 -23 -16 -18 -25 3 -28 7 -19 18 14 17 17 17 35 0z m-199 -28 c-3 -8 -6
-5 -6 6 -1 11 2 17 5 13 3 -3 4 -12 1 -19z m253 -2 c0 -3 -4 -8 -10 -11 -5 -3
-10 -1 -10 4 0 6 5 11 10 11 6 0 10 -2 10 -4z m-1180 -256 c0 -5 8 -10 18 -11
10 0 12 -3 5 -6 -7 -2 -23 3 -35 11 -18 13 -19 16 -5 16 9 0 17 -4 17 -10z
m-270 -60 c0 -5 -2 -10 -4 -10 -3 0 -8 5 -11 10 -3 6 -1 10 4 10 6 0 11 -4 11
-10z m-175 -10 c3 -5 1 -10 -4 -10 -6 0 -11 5 -11 10 0 6 2 10 4 10 3 0 8 -4
11 -10z m144 -20 c5 0 6 -11 3 -25 -6 -36 -36 -29 -40 9 -3 23 0 28 13 22 9
-3 20 -6 24 -6z m-128 -19 c20 -17 22 -23 12 -39 -9 -16 -9 -24 2 -38 12 -17
13 -16 8 11 l-5 30 21 -25 c17 -21 20 -52 6 -68 -1 -1 -21 14 -44 34 -34 31
-41 43 -41 76 0 43 8 46 41 19z m78 -148 c-8 -9 -16 -10 -22 -4 -13 13 0 31
19 24 11 -4 12 -8 3 -20z m30 -79 c6 4 11 1 11 -7 0 -8 7 -20 15 -27 21 -17
19 -30 -5 -30 -11 0 -20 4 -20 9 0 4 -13 25 -30 46 -16 21 -30 43 -30 49 1 6
11 -2 24 -18 13 -16 29 -25 35 -22z m71 -117 c0 -4 5 -5 12 -1 6 4 8 3 4 -4
-3 -5 0 -13 6 -15 8 -3 6 -6 -5 -6 -15 -1 -16 -4 -6 -23 11 -21 11 -22 -5 -9
-9 8 -14 21 -11 31 3 9 -3 24 -15 35 -11 10 -17 22 -13 28 6 10 33 -19 33 -36z
m160 -153 c0 -8 -4 -12 -10 -9 -5 3 -10 10 -10 16 0 5 5 9 10 9 6 0 10 -7 10
-16z m88 -19 c-3 -3 -9 2 -12 12 -6 14 -5 15 5 6 7 -7 10 -15 7 -18z"/>
<path d="M1525 2510 c-3 -6 -17 -7 -30 -4 -33 8 -56 -7 -27 -17 25 -9 72 5 72
21 0 13 -7 13 -15 0z"/>
<path d="M1063 3518 c-23 -30 -24 -41 -2 -21 12 12 20 25 17 28 -3 3 -10 0
-15 -7z"/>
<path d="M545 3500 c-3 -5 -1 -10 4 -10 6 0 11 5 11 10 0 6 -2 10 -4 10 -3 0
-8 -4 -11 -10z"/>
<path d="M740 3409 c0 -5 5 -7 10 -4 6 3 10 8 10 11 0 2 -4 4 -10 4 -5 0 -10
-5 -10 -11z"/>
<path d="M968 3340 c-19 -18 -24 -50 -9 -50 6 0 17 10 26 23 11 16 18 19 23
10 8 -13 52 -6 52 8 0 5 10 9 22 9 17 0 19 3 10 12 -8 8 -15 8 -25 0 -8 -7
-17 -9 -21 -5 -14 14 -61 10 -78 -7z m67 0 c3 -5 1 -10 -4 -10 -6 0 -11 5 -11
10 0 6 2 10 4 10 3 0 8 -4 11 -10z"/>
<path d="M980 3270 c-8 -5 -29 -7 -46 -4 -18 3 -35 1 -38 -5 -4 -7 -1 -9 8 -5
19 7 21 -7 4 -25 -11 -10 -7 -12 17 -9 29 3 30 2 27 -34 -2 -21 2 -38 7 -38
13 0 24 36 16 58 -3 11 3 30 16 45 21 27 16 35 -11 17z"/>
<path d="M494 3242 c-4 -9 -6 -20 -6 -24 1 -5 -4 -8 -12 -8 -8 0 -17 -7 -20
-16 -10 -26 -7 -28 13 -10 18 16 18 15 14 -11 -4 -27 -3 -27 16 7 11 19 20 43
21 52 0 24 -17 31 -26 10z"/>
<path d="M412 3217 c-24 -25 -28 -37 -13 -37 5 0 19 14 31 30 25 35 13 40 -18
7z"/>
<path d="M667 3184 c-20 -19 -37 -40 -37 -45 0 -6 -23 -35 -51 -65 -45 -47
-49 -54 -30 -54 28 0 23 -21 -7 -35 -28 -12 -28 -25 -1 -25 13 0 18 -4 14 -12
-4 -7 4 -2 17 12 14 15 36 26 56 27 39 3 40 -3 6 -30 -25 -19 -25 -21 -8 -28
23 -8 44 7 44 30 0 9 5 22 12 29 9 9 9 12 -1 12 -8 0 -11 10 -9 27 2 22 11 30
43 39 22 7 32 13 23 13 -10 1 -18 7 -18 15 0 11 -8 13 -32 9 -30 -4 -33 -2
-34 21 -1 14 1 26 5 26 9 0 54 60 49 65 -2 2 -20 -12 -41 -31z"/>
<path d="M570 3168 c-12 -22 -12 -22 6 -6 10 10 15 20 12 24 -4 3 -12 -5 -18
-18z"/>
<path d="M592 3148 c-14 -14 -16 -38 -3 -38 10 0 26 39 19 46 -2 2 -10 -2 -16
-8z"/>
<path d="M830 3149 c0 -5 5 -7 10 -4 6 3 10 8 10 11 0 2 -4 4 -10 4 -5 0 -10
-5 -10 -11z"/>
<path d="M770 3140 c0 -5 5 -10 11 -10 5 0 7 5 4 10 -3 6 -8 10 -11 10 -2 0
-4 -4 -4 -10z"/>
<path d="M345 3070 c-3 -5 -1 -10 4 -10 6 0 11 5 11 10 0 6 -2 10 -4 10 -3 0
-8 -4 -11 -10z"/>
<path d="M706 3035 c-10 -7 -15 -18 -11 -24 4 -7 14 -5 30 6 12 10 21 21 18
26 -6 10 -15 8 -37 -8z"/>
<path d="M545 2912 c-19 -10 -25 -17 -16 -20 7 -2 17 1 21 8 4 7 15 10 24 7 9
-4 16 -2 16 3 0 17 -15 18 -45 2z"/>
<path d="M950 2909 c0 -6 -7 -9 -15 -5 -8 3 -15 1 -15 -4 0 -12 69 -45 77 -37
3 4 -2 9 -11 13 -9 3 -16 13 -16 21 0 8 5 11 10 8 6 -3 10 -1 10 4 0 6 -9 11
-20 11 -11 0 -20 -5 -20 -11z"/>
<path d="M190 2899 c0 -5 5 -7 10 -4 6 3 10 8 10 11 0 2 -4 4 -10 4 -5 0 -10
-5 -10 -11z"/>
<path d="M676 2849 c-14 -11 -26 -15 -26 -9 0 7 -6 5 -16 -4 -22 -22 -41 -20
-50 6 -6 19 -7 19 -16 5 -5 -11 -5 -24 2 -36 7 -14 7 -22 -1 -27 -12 -7 -29
12 -29 32 0 6 -8 18 -17 25 -15 13 -16 12 -11 -9 4 -15 2 -25 -8 -29 -14 -5
-20 -24 -6 -22 19 3 26 -2 12 -11 -8 -5 -11 -12 -7 -17 4 -4 17 -2 28 6 19 11
20 10 13 -11 -6 -20 -5 -21 10 -9 22 18 31 8 16 -18 -14 -27 -25 -26 -44 1
-22 30 -41 12 -27 -25 10 -27 23 -38 18 -16 -1 6 4 14 12 17 8 3 11 0 7 -7
-11 -17 30 -13 49 5 9 9 14 23 11 30 -3 9 1 14 12 14 10 0 23 5 29 11 6 6 19
9 29 7 17 -4 16 -6 -6 -15 -29 -12 -66 -50 -57 -59 3 -3 21 6 40 20 19 14 38
26 44 26 5 0 10 6 10 13 0 6 4 20 8 31 7 15 5 17 -12 12 -26 -8 -53 2 -53 21
0 8 5 11 11 7 6 -3 22 6 35 21 36 42 32 47 -10 14z"/>
<path d="M358 2834 c-5 -4 -8 -16 -8 -28 0 -14 3 -17 11 -9 6 6 9 19 7 28 -1
9 -6 13 -10 9z"/>
<path d="M259 2803 c-7 -10 -10 -15 -5 -11 5 4 17 3 28 -3 16 -9 19 -8 16 7
-4 25 -23 28 -39 7z"/>
<path d="M231 2734 c0 -11 3 -14 6 -6 3 7 2 16 -1 19 -3 4 -6 -2 -5 -13z"/>
<path d="M247 2707 c-10 -10 -16 -21 -13 -25 8 -8 39 24 35 35 -2 5 -12 0 -22
-10z"/>
<path d="M637 2673 c-11 -11 -8 -20 7 -20 8 0 12 6 9 14 -6 15 -7 15 -16 6z"/>
<path d="M1110 2659 c0 -5 5 -7 10 -4 6 3 10 8 10 11 0 2 -4 4 -10 4 -5 0 -10
-5 -10 -11z"/>
<path d="M691 2641 c-11 -7 -9 -11 9 -21 27 -14 39 -5 19 15 -9 9 -19 11 -28
6z"/>
<path d="M124 2609 c-3 -6 -1 -16 5 -22 8 -8 11 -5 11 11 0 24 -5 28 -16 11z"/>
<path d="M474 2395 c-19 -14 -18 -14 4 -15 13 0 22 6 22 15 0 19 -1 19 -26 0z"/>
<path d="M139 2340 c-7 -23 -17 -39 -24 -36 -7 2 -10 -10 -9 -38 2 -22 3 -48
3 -55 1 -12 4 -12 13 -3 16 16 38 15 38 -1 0 -8 8 -29 17 -48 12 -23 19 -66
21 -131 3 -54 8 -96 12 -93 4 2 13 31 19 64 10 53 10 64 -5 87 -12 17 -17 42
-15 75 3 68 -6 94 -26 78 -12 -10 -16 -10 -24 2 -13 20 -11 35 6 49 8 7 15 20
15 29 0 9 6 23 13 30 10 11 9 13 -5 8 -12 -4 -18 -1 -18 8 0 30 -20 14 -31
-25z"/>
<path d="M490 2363 c0 -6 7 -14 16 -17 10 -4 14 -14 11 -25 -3 -14 -1 -18 9
-14 8 3 14 -1 14 -11 0 -19 11 -21 28 -4 18 18 14 27 -10 20 -18 -4 -20 -2
-16 16 5 16 2 22 -11 22 -9 0 -22 5 -29 12 -8 8 -12 8 -12 1z"/>
<path d="M611 2311 c-7 -5 -10 -14 -6 -20 5 -9 10 -9 21 0 26 22 14 38 -15 20z"/>
<path d="M643 2298 c-31 -40 -27 -50 5 -13 12 14 18 25 13 25 -5 0 -13 -6 -18
-12z"/>
<path d="M45 2270 c-6 -25 0 -98 9 -107 1 -2 9 8 16 22 12 22 11 27 -5 45 -14
16 -16 23 -7 32 14 14 16 38 3 38 -5 0 -12 -13 -16 -30z"/>
<path d="M0 2244 c0 -22 4 -34 11 -32 18 6 20 56 3 62 -10 4 -14 -4 -14 -30z"/>
<path d="M287 2252 c-10 -10 -17 -28 -17 -40 0 -11 -5 -24 -11 -27 -5 -4 -9
-14 -7 -23 2 -10 -2 -22 -10 -27 -18 -14 -5 -44 25 -56 20 -7 24 -14 19 -33
-4 -16 1 -29 15 -42 21 -19 22 -19 15 4 -5 13 -3 22 3 22 6 0 14 -12 17 -27 4
-16 11 -34 17 -40 10 -14 31 -18 23 -5 -11 18 -16 112 -6 112 5 0 10 10 10 23
0 17 -2 19 -10 7 -17 -27 -30 4 -37 88 -6 86 -15 98 -46 64z"/>
<path d="M515 2089 c-4 -6 -5 -12 -2 -15 2 -3 7 2 10 11 7 17 1 20 -8 4z"/>
<path d="M444 2059 c-10 -16 12 -32 30 -22 14 7 13 10 -4 21 -13 8 -21 8 -26
1z"/>
<path d="M300 1850 c0 -5 5 -10 11 -10 5 0 7 5 4 10 -3 6 -8 10 -11 10 -2 0
-4 -4 -4 -10z"/>
<path d="M310 1735 c0 -8 5 -15 10 -15 6 0 10 7 10 15 0 8 -4 15 -10 15 -5 0
-10 -7 -10 -15z"/>
<path d="M487 1433 c-4 -3 -7 -11 -7 -17 0 -6 5 -5 12 2 6 6 9 14 7 17 -3 3
-9 2 -12 -2z"/>
<path d="M470 1363 c0 -5 7 -18 15 -29 12 -16 14 -16 15 -3 0 9 -7 22 -15 29
-8 7 -15 8 -15 3z"/>
</g>
</svg>
